<?xml version="1.0" encoding="UTF-8" standalone="no"?>
<svg
   xmlns:dc="http://purl.org/dc/elements/1.1/"
   xmlns:cc="http://creativecommons.org/ns#"
   xmlns:rdf="http://www.w3.org/1999/02/22-rdf-syntax-ns#"
   xmlns:svg="http://www.w3.org/2000/svg"
   xmlns="http://www.w3.org/2000/svg"
   xmlns:sodipodi="http://sodipodi.sourceforge.net/DTD/sodipodi-0.dtd"
   xmlns:inkscape="http://www.inkscape.org/namespaces/inkscape"
   version="1.1"
   width="76"
   height="76"
   viewBox="0 0 76.00 76.00"
   enable-background="new 0 0 76.00 76.00"
   xml:space="preserve"
   id="svg2"
   inkscape:version="0.48.4 r9939"
   sodipodi:docname="appbar.sort.numeric.ascending.svg"><metadata
   id="metadata10"><rdf:RDF><cc:Work
       rdf:about=""><dc:format>image/svg+xml</dc:format><dc:type
         rdf:resource="http://purl.org/dc/dcmitype/StillImage" /></cc:Work></rdf:RDF></metadata><defs
   id="defs8" /><sodipodi:namedview
   pagecolor="#ffffff"
   bordercolor="#666666"
   borderopacity="1"
   objecttolerance="10"
   gridtolerance="10"
   guidetolerance="10"
   inkscape:pageopacity="0"
   inkscape:pageshadow="2"
   inkscape:window-width="1920"
   inkscape:window-height="1017"
   id="namedview6"
   showgrid="false"
   inkscape:zoom="3.1052632"
   inkscape:cx="38"
   inkscape:cy="38"
   inkscape:window-x="-8"
   inkscape:window-y="-8"
   inkscape:window-maximized="1"
   inkscape:current-layer="svg2" />
	<path
   d="M 76.097357,44.529205 52.881815,21.313838 29.666449,44.529205 l 46.430908,0 z M 9.0790819,31.993864 l 0,-22.3668165 -1.7904877,0.8149095 -1.615976,0.561727 -1.7130444,0.388445 -1.9071792,0.274031 0,-6.9355768 L 4.7503043,4.1203205 7.3614829,3.2118486 9.9726604,1.9321026 C 10.846617,1.439758 11.745804,1.1031765 12.67057,0.45576953 l 5.169093,0 0,31.53809447 -8.7605811,0 z m 14.3438761,21.72817 c 0,2.339601 -0.271578,4.561109 -0.81491,6.664876 -0.543156,2.103765 -1.389252,3.946292 -2.538291,5.527576 -1.149037,1.581284 -2.626247,2.837729 -4.431803,3.769503 -1.805556,0.931602 -3.965915,1.397488 -6.4810778,1.397488 l -2.4449024,-0.128429 -2.01476,-0.315556 -1.5604345,-0.391773 -1.1096152,-0.377931 0,-7.129713 1.0090438,0.541055 1.4321801,0.50969 1.6783514,0.377931 1.7338954,0.15261 c 2.1685952,0 3.8273232,-0.599925 4.9761852,-1.799773 1.149039,-1.199849 1.737398,-2.962479 1.765081,-5.288239 l -0.131763,0 c -0.619549,0.795287 -1.417112,1.427625 -2.39269,1.896842 -0.975578,0.469216 -2.1570316,0.704 -3.5440064,0.704 -1.0819318,0 -2.1258421,-0.209202 -3.1313823,-0.627784 C 4.4163503,58.786001 3.523997,58.175738 2.7450062,57.373444 1.9658401,56.571326 1.6164681,55.632017 1.1472513,54.448462 0.67803454,53.264732 0.44325089,51.912272 0.44325089,50.391086 c 0,-1.849359 0.29943669,-3.484959 0.89813491,-4.906802 0.5988732,-1.421668 1.143431,-2.667072 2.1838384,-3.628808 1.0402296,-0.961738 2.2644346,-1.687639 3.6722604,-2.177706 1.4080002,-0.490242 2.9209534,-0.735187 4.5393844,-0.735187 0.822967,0 1.686411,0.09356 2.590326,0.280863 0.903919,0.187302 1.785933,0.501632 2.645872,0.943165 0.859939,0.441533 1.679578,1.029894 2.45857,1.765082 0.779167,0.735187 1.46582,1.651895 2.059788,2.749946 0.594142,1.09805 1.064761,2.39164 1.411504,3.880413 0.346745,1.488773 0.520029,3.208825 0.520029,5.159982 z m -9.147799,-4.050368 -0.162947,-1.3663 -0.489017,-1.227533 c -0.217262,-0.369871 -0.487788,-0.665805 -0.811404,-0.887796 -0.323616,-0.221819 -0.709783,-0.332903 -1.158149,-0.332903 -0.781445,0 -1.428851,0.313278 -1.9420459,0.939836 -0.5131956,0.62638 -0.7698806,1.598631 -0.7698806,2.916396 0,1.225256 0.253181,2.15563 0.759544,2.791473 0.5061855,0.635668 1.1430795,0.953676 1.9106815,0.953676 0.462384,0 0.858888,-0.09725 1.189512,-0.291376 0.33045,-0.194135 0.60448,-0.464661 0.821742,-0.811405 l 0.489017,-1.21369 0.162947,-1.470378 z"
   id="path4"
   inkscape:connector-curvature="0"
   style="fill:#000000;fill-opacity:1;stroke-width:0.2;stroke-linejoin:round" />
</svg>