<?xml version="1.0" encoding="UTF-8" standalone="no"?>
<svg
   xmlns:dc="http://purl.org/dc/elements/1.1/"
   xmlns:cc="http://creativecommons.org/ns#"
   xmlns:rdf="http://www.w3.org/1999/02/22-rdf-syntax-ns#"
   xmlns:svg="http://www.w3.org/2000/svg"
   xmlns="http://www.w3.org/2000/svg"
   xmlns:sodipodi="http://sodipodi.sourceforge.net/DTD/sodipodi-0.dtd"
   xmlns:inkscape="http://www.inkscape.org/namespaces/inkscape"
   version="1.1"
   width="76"
   height="76"
   viewBox="0 0 76.00 76.00"
   enable-background="new 0 0 76.00 76.00"
   xml:space="preserve"
   id="svg2"
   inkscape:version="0.48.4 r9939"
   sodipodi:docname="appbar.cog.svg"><metadata
   id="metadata10"><rdf:RDF><cc:Work
       rdf:about=""><dc:format>image/svg+xml</dc:format><dc:type
         rdf:resource="http://purl.org/dc/dcmitype/StillImage" /></cc:Work></rdf:RDF></metadata><defs
   id="defs8" /><sodipodi:namedview
   pagecolor="#ffffff"
   bordercolor="#666666"
   borderopacity="1"
   objecttolerance="10"
   gridtolerance="10"
   guidetolerance="10"
   inkscape:pageopacity="0"
   inkscape:pageshadow="2"
   inkscape:window-width="640"
   inkscape:window-height="480"
   id="namedview6"
   showgrid="false"
   inkscape:zoom="3.1052632"
   inkscape:cx="38"
   inkscape:cy="38"
   inkscape:window-x="0"
   inkscape:window-y="0"
   inkscape:window-maximized="0"
   inkscape:current-layer="svg2" />
	<path
   d="M 16.81594,5.8416052 27.738954,0.97834097 31.224386,8.8067137 C 35.026078,7.962159 38.882373,7.889222 42.593791,8.5115779 l 3.071923,-8.002744 11.16275,4.2849495 -3.071923,8.0027436 c 3.174354,2.020914 5.991197,4.655414 8.251248,7.826779 l 7.828373,-3.485432 4.863463,10.923213 -7.828373,3.485433 c 0.844555,3.801692 0.917492,7.657788 0.295136,11.369404 l 8.002545,3.071924 -4.28495,11.16255 -8.002544,-3.071724 c -2.020914,3.174553 -4.655414,5.991397 -7.826779,8.251447 l 3.485233,7.828373 -10.923014,4.863264 -3.485432,-7.828372 c -3.801692,0.844554 -7.657788,0.917491 -11.369206,0.295135 l -3.071923,8.002545 -11.16275,-4.284949 3.071923,-8.002545 C 18.424938,61.182659 15.607896,58.548158 13.347845,55.376594 L 5.519472,58.862027 0.65620779,47.938813 8.4845806,44.453381 C 7.6400258,40.651888 7.5670888,36.795792 8.1894447,33.084175 L 0.1869,30.012451 4.4718495,18.849701 12.474394,21.921625 c 2.020913,-3.174554 4.655414,-5.991596 7.826978,-8.251647 L 16.81594,5.8416052 z M 30.38302,21.615329 C 21.333849,25.644202 17.264323,36.245975 21.293196,45.294946 25.322069,54.344117 35.923841,58.413643 44.972813,54.38477 54.021984,50.355898 58.09151,39.754125 54.062637,30.705153 50.033764,21.655983 39.431992,17.586456 30.38302,21.615329 z"
   id="path4"
   inkscape:connector-curvature="0"
   style="fill:#000000;fill-opacity:1;stroke-width:0.2;stroke-linejoin:round" />
</svg>