<?xml version="1.0" encoding="UTF-8" standalone="no"?>
<svg
   xmlns:dc="http://purl.org/dc/elements/1.1/"
   xmlns:cc="http://creativecommons.org/ns#"
   xmlns:rdf="http://www.w3.org/1999/02/22-rdf-syntax-ns#"
   xmlns:svg="http://www.w3.org/2000/svg"
   xmlns="http://www.w3.org/2000/svg"
   xmlns:sodipodi="http://sodipodi.sourceforge.net/DTD/sodipodi-0.dtd"
   xmlns:inkscape="http://www.inkscape.org/namespaces/inkscape"
   version="1.1"
   width="76.0106"
   height="76.0106"
   viewBox="0 0 76.01 76.01"
   enable-background="new 0 0 76.01 76.01"
   xml:space="preserve"
   id="svg2"
   inkscape:version="0.48.4 r9939"
   sodipodi:docname="appbar.table.delete.column.svg"><metadata
   id="metadata10"><rdf:RDF><cc:Work
       rdf:about=""><dc:format>image/svg+xml</dc:format><dc:type
         rdf:resource="http://purl.org/dc/dcmitype/StillImage" /><dc:title></dc:title></cc:Work></rdf:RDF></metadata><defs
   id="defs8" /><sodipodi:namedview
   pagecolor="#ffffff"
   bordercolor="#666666"
   borderopacity="1"
   objecttolerance="10"
   gridtolerance="10"
   guidetolerance="10"
   inkscape:pageopacity="0"
   inkscape:pageshadow="2"
   inkscape:window-width="1920"
   inkscape:window-height="1017"
   id="namedview6"
   showgrid="true"
   inkscape:snap-grids="true"
   inkscape:zoom="22.627417"
   inkscape:cx="25.429235"
   inkscape:cy="60.07606"
   inkscape:window-x="-8"
   inkscape:window-y="-8"
   inkscape:window-maximized="1"
   inkscape:current-layer="svg2"
   showguides="true"
   inkscape:guide-bbox="true"><inkscape:grid
     type="xygrid"
     id="grid3051" /><sodipodi:guide
     orientation="0,1"
     position="83,-5"
     id="guide3309" /></sodipodi:namedview>
	
<g
   id="g3271"
   transform="matrix(1.5378886,0,0,1.5378886,-14.090625,-25.147668)"><path
     sodipodi:nodetypes="ccccccccccccccccccccccccccccccccccccccccccccc"
     style="fill:#000000;fill-opacity:1;stroke-width:0.2;stroke-linejoin:round"
     inkscape:connector-curvature="0"
     id="path4"
     d="m 18.0025,64.010518 0,-37.192634 40.0056,0 0,37.192634 z m 3.0004,-3.0004 34.0047,0 0,-30.005718 -34.0047,0 z m 2.0003,-14.003518 6.0008,0 0,5.0007 -6.0008,0 z m 16.0022,0 6.0008,0 0,5.0007 -6.0008,0 z m 8.0011,0 6.0009,0 0,5.0007 -6.0009,0 z m -16.0022,-7.001 6.0008,0 0,5.0007 -6.0008,0 z m 8.0011,-7.0008 6.0008,0 0,5.0007 -6.0008,0 z m 8.0011,0 6.0009,0 0,5.0007 -6.0009,0 z m -15.002,8.0009 0,3.0004 4.0005,0 0,-3.0004 z" /><path
     sodipodi:nodetypes="ccccc"
     style="fill:#000000;fill-opacity:1;stroke-width:0.2;stroke-linejoin:round"
     inkscape:connector-curvature="0"
     id="path4-1"
     d="m 22.987127,33.034483 6.000803,0 0,5.000701 -6.000803,0 z" /><path
     sodipodi:nodetypes="ccccc"
     style="fill:#000000;fill-opacity:1;stroke-width:0.2;stroke-linejoin:round"
     inkscape:connector-curvature="0"
     id="path4-1-8"
     d="m 22.996617,54.00775 6.000803,0 0,5.000701 -6.000803,0 z" /><path
     sodipodi:nodetypes="ccccc"
     style="fill:#000000;fill-opacity:1;stroke-width:0.2;stroke-linejoin:round"
     inkscape:connector-curvature="0"
     id="path4-1-8-2"
     d="m 38.999268,54.015563 6.000803,0 0,5.000701 -6.000803,0 z" /><path
     sodipodi:nodetypes="ccccc"
     style="fill:#000000;fill-opacity:1;stroke-width:0.2;stroke-linejoin:round"
     inkscape:connector-curvature="0"
     id="path4-1-8-4"
     d="m 46.996428,54.00775 6.000804,0 0,5.000701 -6.000804,0 z" /><path
     sodipodi:nodetypes="ccccc"
     style="fill:#000000;fill-opacity:1;stroke-width:0.2;stroke-linejoin:round"
     inkscape:connector-curvature="0"
     id="path4-1-51"
     d="m 38.999273,40.030115 6.000803,0 0,5.0007 -6.000803,0 z" /><path
     sodipodi:nodetypes="ccccc"
     style="fill:#000000;fill-opacity:1;stroke-width:0.2;stroke-linejoin:round"
     inkscape:connector-curvature="0"
     id="path4-1-7"
     d="m 47.006579,40.016251 6.000803,0 0,5.0007 -6.000803,0 z" /><path
     sodipodi:nodetypes="ccccc"
     style="fill:#000000;fill-opacity:1;stroke-width:0.2;stroke-linejoin:round"
     inkscape:connector-curvature="0"
     id="path4-1-1"
     d="m 23.029762,40.019335 6.000803,0 0,5.000701 -6.000803,0 z" /><path
     sodipodi:nodetypes="cccccccccc"
     style="fill:#000000;fill-opacity:1;stroke-width:0.2;stroke-linejoin:round"
     inkscape:connector-curvature="0"
     id="path4-2"
     d="m 31.006753,33.001842 6.000793,0 0,5.000701 -6.000793,0 z m 1.000192,1.000102 0,3.000397 4.000509,0 0,-3.000397 z" /><path
     sodipodi:nodetypes="cccccccccc"
     style="fill:#000000;fill-opacity:1;stroke-width:0.2;stroke-linejoin:round"
     inkscape:connector-curvature="0"
     id="path4-7"
     d="m 30.996882,47.009858 6.000793,0 0,5.0007 -6.000793,0 z m 1.000192,1.000102 0,3.000396 4.000509,0 0,-3.000396 z" /><path
     sodipodi:nodetypes="cccccccccc"
     style="fill:#000000;fill-opacity:1;stroke-width:0.2;stroke-linejoin:round"
     inkscape:connector-curvature="0"
     id="path4-6"
     d="m 31.006753,54.009124 6.000793,0 0,5.0007 -6.000793,0 z m 1.000192,1.000102 0,3.000396 4.000509,0 0,-3.000396 z" /></g><path
   d="m 36.482128,1.1866992 3.833637,0 0,4.3906802 3.833633,0 0,4.3906813 -3.833633,0 0,4.3906813 -3.833637,0 0,-4.3906813 -3.833636,0 0,-4.3906813 3.833636,0 z"
   id="path4-4-7"
   inkscape:connector-curvature="0"
   style="fill:#000000;fill-opacity:1;stroke-width:0.2;stroke-linejoin:round"
   sodipodi:nodetypes="ccccccccccccc" /></svg>