<?xml version="1.0" encoding="UTF-8" standalone="no"?>
<svg
   xmlns:dc="http://purl.org/dc/elements/1.1/"
   xmlns:cc="http://creativecommons.org/ns#"
   xmlns:rdf="http://www.w3.org/1999/02/22-rdf-syntax-ns#"
   xmlns:svg="http://www.w3.org/2000/svg"
   xmlns="http://www.w3.org/2000/svg"
   xmlns:sodipodi="http://sodipodi.sourceforge.net/DTD/sodipodi-0.dtd"
   xmlns:inkscape="http://www.inkscape.org/namespaces/inkscape"
   version="1.1"
   width="76"
   height="76"
   viewBox="0 0 76.00 76.00"
   enable-background="new 0 0 76.00 76.00"
   xml:space="preserve"
   id="svg2"
   inkscape:version="0.48.4 r9939"
   sodipodi:docname="appbar.answer.add.svg"><metadata
   id="metadata10"><rdf:RDF><cc:Work
       rdf:about=""><dc:format>image/svg+xml</dc:format><dc:type
         rdf:resource="http://purl.org/dc/dcmitype/StillImage" /></cc:Work></rdf:RDF></metadata><defs
   id="defs8" /><sodipodi:namedview
   pagecolor="#ffffff"
   bordercolor="#666666"
   borderopacity="1"
   objecttolerance="10"
   gridtolerance="10"
   guidetolerance="10"
   inkscape:pageopacity="0"
   inkscape:pageshadow="2"
   inkscape:window-width="1920"
   inkscape:window-height="1017"
   id="namedview6"
   showgrid="false"
   inkscape:zoom="3.1052632"
   inkscape:cx="31.539559"
   inkscape:cy="0.17903686"
   inkscape:window-x="1912"
   inkscape:window-y="-8"
   inkscape:window-maximized="1"
   inkscape:current-layer="svg2" />
	
<path
   style="fill:#000000;fill-opacity:1;stroke-width:0.2;stroke-linejoin:round"
   inkscape:connector-curvature="0"
   d="m -0.26839507,26.42785 76.47996607,0 0,46.434254 -76.47996607,0 0,-46.434254 z m 5.46290437,5.462905 0,35.508444 65.5541567,0 0,-35.508444 -65.5541567,0 z m 17.9545937,27.314175 -3.824051,0 0,-1.900036 -0.05175,0 c -0.863072,1.436671 -2.140343,2.155006 -3.831985,2.155006 -1.248117,0 -2.230049,-0.348471 -2.945624,-1.045588 -0.715748,-0.697117 -1.073536,-1.627123 -1.073536,-2.790365 0,-2.456383 1.47773,-3.874423 4.433359,-4.254119 l 3.493519,-0.45819 c 0,-1.269336 -0.760945,-1.904002 -2.282493,-1.904002 -1.532241,0 -2.988924,0.424894 -4.369702,1.274683 l 0,-2.99548 2.280423,-0.756806 2.634933,-0.326563 c 3.691216,0 5.536911,1.805672 5.536911,5.417361 l 0,7.584099 z m -3.800072,-5.166358 0,-0.832538 -2.382031,0.290853 c -1.317292,0.159401 -1.975767,0.718336 -1.975767,1.67698 0,0.432829 0.159917,0.788029 0.479925,1.065599 0.320008,0.277398 0.753528,0.416269 1.300561,0.416269 0.762153,0 1.382329,-0.247036 1.860185,-0.740935 0.478028,-0.493898 0.717127,-1.119423 0.717127,-1.876228 z m 10.735012,3.580982 -0.05175,0 0,1.585376 -3.824049,0 0,-18.864935 3.824049,0 0,8.13786 0.05175,0 c 0.98245,-1.516199 2.379272,-2.274385 4.190463,-2.274385 1.662315,0 2.943037,0.559625 3.841819,1.678876 0.898954,1.119424 1.348345,2.649595 1.348345,4.590862 0,2.10584 -0.524432,3.796793 -1.573299,5.072685 -1.049039,1.276063 -2.451037,1.914007 -4.206507,1.914007 -1.587963,0 -2.788294,-0.613448 -3.600821,-1.840346 z m -0.11162,-5.257961 0,1.266747 c 0,0.799244 0.239099,1.461169 0.717128,1.985602 0.477854,0.524605 1.091304,0.786823 1.840173,0.786823 0.905511,0 1.607975,-0.33657 2.107222,-1.00988 0.499247,-0.673138 0.748869,-1.627123 0.748869,-2.861956 0,-1.025061 -0.228404,-1.825683 -0.68504,-2.401869 -0.456809,-0.57636 -1.110107,-0.864453 -1.959897,-0.864453 -0.796655,0 -1.457199,0.286195 -1.981633,0.858414 -0.524433,0.572219 -0.786822,1.31919 -0.786822,2.240572 z m 21.474162,6.297684 c -0.86842,0.533749 -2.123093,0.800623 -3.764189,0.800623 -1.917287,0 -3.46885,-0.588262 -4.654518,-1.764614 -1.185668,-1.176351 -1.778588,-2.695311 -1.778588,-4.556877 0,-2.14569 0.635358,-3.838023 1.906073,-5.076824 1.270544,-1.2388 2.970812,-1.858115 5.100631,-1.858115 1.468414,0 2.532117,0.207013 3.190591,0.621384 l 0,3.457465 c -0.783373,-0.679866 -1.656967,-1.019712 -2.620959,-1.019712 -1.075606,0 -1.927292,0.320697 -2.555405,0.96192 -0.62794,0.641396 -0.942082,1.526377 -0.942082,2.654944 0,1.096652 0.300169,1.957826 0.900335,2.583178 0.600166,0.625353 1.425976,0.938116 2.477602,0.938116 0.934837,0 1.848628,-0.34002 2.740509,-1.019713 l 0,3.278225 z m 2.230739,6.008557 0,-30.045714 3.414164,0 0,30.045714 -3.414164,0 z"
   id="path4" /><g
   id="g3884"
   transform="matrix(2.4226713,0,0,2.4226713,-157.71706,-47.029263)"><path
     sodipodi:nodetypes="cccccccccccccccccccccccccc"
     style="fill:#ffffff;fill-opacity:1;stroke-width:0.2;stroke-linejoin:round"
     inkscape:connector-curvature="0"
     id="path4-8-2"
     d="m 69.514182,31.573481 5.026309,0.0071 -0.0071,-3.06126 2.99053,0 0,-5.039969 -3.033227,0.02135 0.0071,-3.039911 -4.996205,0.04025 -0.02013,3.032203 -3.010064,0.02013 0.01667,5.001528 3.054574,-0.0427 z m 1.359758,-0.989583 0,-3.374364 -3.332097,0 0,-2.249578 3.332097,0 0,-3.374363 2.2214,0 0,3.374363 3.332096,0 0,2.249578 -3.332096,0 0,3.374364 z" /><g
     transform="translate(9.2798462,-1.9384157)"
     id="g3849"><path
       d="m 60.734754,32.952694 4,0 0,-3 3,0 0,-4 -3,0 0,-3 -4,0 0,3 -3,0 0,4 3,0 z m 1,-1 0,-3 -3,0 0,-2 3,0 0,-3 2,0 0,3 3,0 0,2 -3,0 0,3 z"
       id="path4-8"
       inkscape:connector-curvature="0"
       style="fill:#000000;fill-opacity:1;stroke-width:0.2;stroke-linejoin:round"
       sodipodi:nodetypes="cccccccccccccccccccccccccc" /><path
       style="fill:#ffffff;fill-opacity:0;stroke:none"
       d="m 61.747066,30.434092 0,-1.508594 -1.494362,0 -1.494363,0 0,-0.98201 0,-0.982009 1.494363,0 1.494362,0 0,-1.494363 0,-1.494362 0.982009,0 0.98201,0 0,1.494362 0,1.494363 1.508594,0 1.508595,0 0,0.981757 0,0.981758 -1.501479,0.0074 -1.501478,0.0074 -0.0074,1.501478 -0.0074,1.501478 -0.981758,0 -0.981758,0 0,-1.508594 z"
       id="path3077"
       inkscape:connector-curvature="0" /><path
       style="fill:#ffffff;fill-opacity:1;stroke:none"
       d="m 61.752759,30.434092 0,-1.508594 -1.508595,0 -1.508594,0 0,-0.98201 0,-0.982009 1.508594,0 1.508595,0 0,-1.494363 0,-1.494362 0.982009,0 0.98201,0 0,1.494362 0,1.494363 1.508594,0 1.508594,0 0,0.982009 0,0.98201 -1.508594,0 -1.508594,0 0,1.508594 0,1.508594 -0.98201,0 -0.982009,0 0,-1.508594 z"
       id="path3847"
       inkscape:connector-curvature="0" /></g></g></svg>