<?xml version="1.0" encoding="UTF-8" standalone="no"?>
<svg
   xmlns:dc="http://purl.org/dc/elements/1.1/"
   xmlns:cc="http://creativecommons.org/ns#"
   xmlns:rdf="http://www.w3.org/1999/02/22-rdf-syntax-ns#"
   xmlns:svg="http://www.w3.org/2000/svg"
   xmlns="http://www.w3.org/2000/svg"
   xmlns:sodipodi="http://sodipodi.sourceforge.net/DTD/sodipodi-0.dtd"
   xmlns:inkscape="http://www.inkscape.org/namespaces/inkscape"
   version="1.1"
   width="76"
   height="76"
   viewBox="0 0 76.00 76.00"
   enable-background="new 0 0 76.00 76.00"
   xml:space="preserve"
   id="svg2"
   inkscape:version="0.48.4 r9939"
   sodipodi:docname="appbar.table.delete.svg"><metadata
   id="metadata10"><rdf:RDF><cc:Work
       rdf:about=""><dc:format>image/svg+xml</dc:format><dc:type
         rdf:resource="http://purl.org/dc/dcmitype/StillImage" /></cc:Work></rdf:RDF></metadata><defs
   id="defs8" /><sodipodi:namedview
   pagecolor="#ffffff"
   bordercolor="#666666"
   borderopacity="1"
   objecttolerance="10"
   gridtolerance="10"
   guidetolerance="10"
   inkscape:pageopacity="0"
   inkscape:pageshadow="2"
   inkscape:window-width="640"
   inkscape:window-height="480"
   id="namedview6"
   showgrid="false"
   inkscape:zoom="3.1052632"
   inkscape:cx="38"
   inkscape:cy="38"
   inkscape:window-x="655"
   inkscape:window-y="0"
   inkscape:window-maximized="0"
   inkscape:current-layer="svg2" />
	<path
   d="m 45.541019,31.617271 -7.54102,-8.264546 -7.541018,8.264546 -4.11325,-4.508005 7.541018,-8.264544 -7.541018,-8.264734 4.11325,-4.5080023 7.541018,8.2647343 7.54102,-8.2647343 4.11325,4.5080023 -7.541018,8.264734 7.541018,8.264544 -4.11325,4.508005 z m -17.93239,17.755264 13.855162,0 0,-5.694318 -13.855162,0 0,5.694318 z m 20.782742,0 13.855162,0 0,-5.694318 -13.855162,0 0,5.694318 z m -41.5654856,-5.694318 0,5.694318 13.8551616,0 0,-5.694318 -13.8551616,0 z m -6.92758032,-7.592425 76.20338992,0 0,7.592425 -6.927582,0 0,5.694318 6.927582,0 0,7.592424 -6.927582,0 0,5.69432 6.927582,0 0,7.592425 -6.927582,0 0,5.694318 -6.92758,0 0,-5.694318 -13.855162,0 0,5.694318 -6.92758,0 0,-5.694318 -13.855162,0 0,5.694318 -6.927582,0 0,-5.694318 -13.8551616,0 0,5.694318 -6.92758032,0 0,-39.86023 z m 6.92758032,20.879167 0,5.69432 13.8551616,0 0,-5.69432 -13.8551616,0 z m 20.7827436,0 0,5.69432 13.855162,0 0,-5.69432 -13.855162,0 z m 20.782742,0 0,5.69432 13.855162,0 0,-5.69432 -13.855162,0 z"
   id="path4"
   inkscape:connector-curvature="0"
   style="fill:#000000;fill-opacity:1;stroke-width:0.2;stroke-linejoin:round" />
</svg>