<?xml version="1.0" encoding="UTF-8" standalone="no"?>
<svg
   xmlns:dc="http://purl.org/dc/elements/1.1/"
   xmlns:cc="http://creativecommons.org/ns#"
   xmlns:rdf="http://www.w3.org/1999/02/22-rdf-syntax-ns#"
   xmlns:svg="http://www.w3.org/2000/svg"
   xmlns="http://www.w3.org/2000/svg"
   xmlns:sodipodi="http://sodipodi.sourceforge.net/DTD/sodipodi-0.dtd"
   xmlns:inkscape="http://www.inkscape.org/namespaces/inkscape"
   version="1.1"
   width="76"
   height="76"
   viewBox="0 0 76.00 76.00"
   enable-background="new 0 0 76.00 76.00"
   xml:space="preserve"
   id="svg2"
   inkscape:version="0.48.4 r9939"
   sodipodi:docname="appbar.greek.sigma.uppercase.svg"><metadata
   id="metadata10"><rdf:RDF><cc:Work
       rdf:about=""><dc:format>image/svg+xml</dc:format><dc:type
         rdf:resource="http://purl.org/dc/dcmitype/StillImage" /><dc:title></dc:title></cc:Work></rdf:RDF></metadata><defs
   id="defs8" /><sodipodi:namedview
   pagecolor="#ffffff"
   bordercolor="#666666"
   borderopacity="1"
   objecttolerance="10"
   gridtolerance="10"
   guidetolerance="10"
   inkscape:pageopacity="0"
   inkscape:pageshadow="2"
   inkscape:window-width="1920"
   inkscape:window-height="1017"
   id="namedview6"
   showgrid="false"
   inkscape:zoom="3.1052632"
   inkscape:cx="38"
   inkscape:cy="38"
   inkscape:window-x="-8"
   inkscape:window-y="-8"
   inkscape:window-maximized="1"
   inkscape:current-layer="svg2" />
	<path
   d="M 21.531483,61.346185 40.842214,37.94379 22.788521,15.096016 l 0,-0.336528 32.565153,0 0,-14.44335414 -54.73247877,0 0,11.43916514 21.59592677,26.853958 -22.85276508,27.68679 0,9.93727 58.84111908,0 0,-14.443354 -36.673993,0 0,-0.443778 z"
   id="path4"
   inkscape:connector-curvature="0"
   style="fill:#000000;fill-opacity:1;stroke-width:0.2;stroke-linejoin:round" />
<g
   transform="matrix(1.1159983,0,0,1.1159983,8.2006723,8.3861642)"
   id="g3807"><path
     sodipodi:nodetypes="ccccccccccsssccccccc"
     id="path4-1-8"
     d="m 44.729911,22.189737 9.459171,9.208014 -22.701797,22.099305 -3.89589,0.810083 -4.030628,-2.566861 -2.364792,-3.651127 0.832138,-3.80011 z m 9.459044,9.210616 -9.465047,-9.207932 2.536129,-2.658857 c 1.423334,-1.492211 3.873307,-1.43844 5.350963,0 l 4.0131,3.906597 c 1.477656,1.43844 1.477657,3.77051 0,5.208949 z m -33.332303,24.590176 -0.945953,-0.920731 1.28975,-6.98268 6.384974,6.21552 z"
     inkscape:connector-curvature="0"
     style="fill:#ffffff;fill-opacity:1;stroke-width:0.2;stroke-linejoin:round" /><path
     style="fill:#000000;fill-opacity:1;stroke-width:0.2;stroke-linejoin:round"
     inkscape:connector-curvature="0"
     id="path4-8"
     d="M 42.7499,25.3335 50.6666,33.2501 31.6667,52.25 23.75,44.3334 42.7499,25.3335 z m 9.4205,6.3329 -7.8371,-7.8371 3.3588,-3.3587 c 1.2367,-1.2367 3.2417,-1.2367 4.4784,0 l 3.3587,3.3587 c 1.2367,1.2367 1.2367,3.2417 0,4.4784 l -3.3588,3.3587 z m -30.3995,23.3543 -0.7917,-0.7916 2.0781,-6.6303 5.3438,5.3438 -6.6302,2.0781 z" /></g></svg>