<?xml version="1.0" encoding="UTF-8" standalone="no"?>
<svg
   xmlns:dc="http://purl.org/dc/elements/1.1/"
   xmlns:cc="http://creativecommons.org/ns#"
   xmlns:rdf="http://www.w3.org/1999/02/22-rdf-syntax-ns#"
   xmlns:svg="http://www.w3.org/2000/svg"
   xmlns="http://www.w3.org/2000/svg"
   xmlns:sodipodi="http://sodipodi.sourceforge.net/DTD/sodipodi-0.dtd"
   xmlns:inkscape="http://www.inkscape.org/namespaces/inkscape"
   version="1.1"
   width="76"
   height="76"
   viewBox="0 0 76.00 76.00"
   enable-background="new 0 0 76.00 76.00"
   xml:space="preserve"
   id="svg2"
   inkscape:version="0.48.4 r9939"
   sodipodi:docname="appbar.table.add.row.svg"><metadata
   id="metadata10"><rdf:RDF><cc:Work
       rdf:about=""><dc:format>image/svg+xml</dc:format><dc:type
         rdf:resource="http://purl.org/dc/dcmitype/StillImage" /><dc:title></dc:title></cc:Work></rdf:RDF></metadata><defs
   id="defs8" /><sodipodi:namedview
   pagecolor="#ffffff"
   bordercolor="#666666"
   borderopacity="1"
   objecttolerance="10"
   gridtolerance="10"
   guidetolerance="10"
   inkscape:pageopacity="0"
   inkscape:pageshadow="2"
   inkscape:window-width="640"
   inkscape:window-height="480"
   id="namedview6"
   showgrid="false"
   inkscape:zoom="3.1052632"
   inkscape:cx="47.208799"
   inkscape:cy="32.645488"
   inkscape:window-x="245"
   inkscape:window-y="7"
   inkscape:window-maximized="0"
   inkscape:current-layer="svg2" />
	
<path
   d="m 44.400915,27.657425 0,13.7901 -13.091653,0 0,-13.7901 z m 0,20.68516 0,13.790102 -13.091653,0 0,-13.790101 z M 31.309262,6.9722647 l 13.091653,0 0,13.7901013 -13.091653,0 z m -5.665836,-6.89505203 0,75.84557333 5.665836,0 0,-6.895049 13.091653,0 0,6.895049 5.4132,0 0,-6.895049 13.344293,0 0,6.895049 5.413198,0 0,-6.895049 7.869714,0 0,-6.89505 -7.869714,0 0,-13.790101 7.869714,0 0,-6.89506 -7.869714,0 0,-13.7901 7.869714,0 0,-6.89506 -7.869714,0 0,-13.7901013 7.869714,0 0,-6.89505203 z m 24.170689,6.89505203 13.344293,0 0,13.7901013 -13.344293,0 z m 0,20.6851603 13.344293,0 0,13.7901 -13.344293,0 z m 0,20.68516 13.344293,0 0,13.790102 -13.344293,0 z"
   id="path4-1"
   inkscape:connector-curvature="0"
   style="fill:#000000;fill-opacity:1;stroke-width:0.2;stroke-linejoin:round"
   sodipodi:nodetypes="ccccccccccccccccccccccccccccccccccccccccccccccccccccccccc" /><path
   d="M 19.134238,49.162473 11.593218,40.897927 4.052201,49.162473 -0.06104903,44.654468 7.479969,36.389924 -0.06104903,28.125191 4.052201,23.617188 l 7.541017,8.264735 7.54102,-8.264735 4.11325,4.508003 -7.54102,8.264733 7.54102,8.264544 z"
   id="path4-7"
   inkscape:connector-curvature="0"
   style="fill:#000000;fill-opacity:1;stroke-width:0.2;stroke-linejoin:round"
   sodipodi:nodetypes="ccccccccccccc" /></svg>