<?xml version="1.0" encoding="UTF-8" standalone="no"?>
<svg
   xmlns:dc="http://purl.org/dc/elements/1.1/"
   xmlns:cc="http://creativecommons.org/ns#"
   xmlns:rdf="http://www.w3.org/1999/02/22-rdf-syntax-ns#"
   xmlns:svg="http://www.w3.org/2000/svg"
   xmlns="http://www.w3.org/2000/svg"
   xmlns:sodipodi="http://sodipodi.sourceforge.net/DTD/sodipodi-0.dtd"
   xmlns:inkscape="http://www.inkscape.org/namespaces/inkscape"
   version="1.1"
   width="76.0106"
   height="76.0106"
   viewBox="0 0 76.01 76.01"
   enable-background="new 0 0 76.01 76.01"
   xml:space="preserve"
   id="svg2"
   inkscape:version="0.48.4 r9939"
   sodipodi:docname="appbar.form.diagram.svg"><metadata
   id="metadata10"><rdf:RDF><cc:Work
       rdf:about=""><dc:format>image/svg+xml</dc:format><dc:type
         rdf:resource="http://purl.org/dc/dcmitype/StillImage" /><dc:title></dc:title></cc:Work></rdf:RDF></metadata><defs
   id="defs8" /><sodipodi:namedview
   pagecolor="#ffffff"
   bordercolor="#666666"
   borderopacity="1"
   objecttolerance="10"
   gridtolerance="10"
   guidetolerance="10"
   inkscape:pageopacity="0"
   inkscape:pageshadow="2"
   inkscape:window-width="1920"
   inkscape:window-height="1017"
   id="namedview6"
   showgrid="false"
   inkscape:zoom="3.1048302"
   inkscape:cx="199.97249"
   inkscape:cy="-7.7824221"
   inkscape:window-x="-8"
   inkscape:window-y="-8"
   inkscape:window-maximized="1"
   inkscape:current-layer="svg2" />
	<path
   d="m 26.896454,42.50527 12.1125,0 0,4.037626 2.01894,0 c 2.01881,-1.345833 6.05605,-2.691666 8.29911,-5.439424 2.24306,-2.747758 4.71048,-6.897442 7.06559,-9.25268 2.35206,-2.351925 4.59218,-2.914378 6.83204,-3.474408 l 0,-4.044002 12.11263,0 0,12.112496 -12.11263,0 0,-4.030996 c -2.19307,0.56003 -4.38629,1.122483 -6.72406,3.474408 -2.34121,2.355239 -4.82738,6.504922 -7.09389,9.252681 l -1.24831,1.401925 15.07557,0 0,-4.037498 12.1125,0 0,12.112495 -12.1125,0 0,-4.037499 -15.07545,0 c 0.40935,0.424517 0.82494,0.888682 1.24819,1.401926 2.26651,2.747631 4.75268,6.897314 7.09389,9.252553 2.34109,2.35524 4.53723,2.916035 6.73337,3.476703 l 0,-4.037499 12.1125,0 0,12.112625 -12.1125,0 0,-4.0375 c -2.24305,-0.560795 -4.48611,-1.121591 -6.84135,-3.476831 -2.35511,-2.355238 -4.82253,-6.504794 -7.06559,-9.252553 -2.24306,-2.747758 -6.2803,-4.09359 -8.29911,-5.439424 l -2.01894,0 0,4.037499 -12.1125,0 0,-12.112623 z"
   id="path4"
   inkscape:connector-curvature="0"
   style="fill:#000000;fill-opacity:1;stroke-width:0.2;stroke-linejoin:round" />
<path
   d="m 7.2086008,-0.0179132 35.5204382,0 18.372667,18.3726682 0,7.739566 -4.89943,-0.06606 1.55e-4,-1.549337 -19.597563,0 0,-19.5975637 -24.496838,1.547e-4 0,53.893105 36.218033,0 3.747304,4.899275 -44.8647662,0 z m 34.2956972,6.1243255 0,13.4730827 13.473082,0 z"
   id="path4-7"
   inkscape:connector-curvature="0"
   style="fill:#000000;fill-opacity:1;stroke-width:0.2;stroke-linejoin:round"
   sodipodi:nodetypes="cccccccccccccccccc" /></svg>