<?xml version="1.0" encoding="UTF-8" standalone="no"?>
<svg
   xmlns:dc="http://purl.org/dc/elements/1.1/"
   xmlns:cc="http://creativecommons.org/ns#"
   xmlns:rdf="http://www.w3.org/1999/02/22-rdf-syntax-ns#"
   xmlns:svg="http://www.w3.org/2000/svg"
   xmlns="http://www.w3.org/2000/svg"
   xmlns:sodipodi="http://sodipodi.sourceforge.net/DTD/sodipodi-0.dtd"
   xmlns:inkscape="http://www.inkscape.org/namespaces/inkscape"
   version="1.1"
   width="76"
   height="76"
   viewBox="0 0 76.00 76.00"
   enable-background="new 0 0 76.00 76.00"
   xml:space="preserve"
   id="svg2"
   inkscape:version="0.48.4 r9939"
   sodipodi:docname="appbar.page.png.svg"><metadata
   id="metadata10"><rdf:RDF><cc:Work
       rdf:about=""><dc:format>image/svg+xml</dc:format><dc:type
         rdf:resource="http://purl.org/dc/dcmitype/StillImage" /><dc:title></dc:title></cc:Work></rdf:RDF></metadata><defs
   id="defs8" /><sodipodi:namedview
   pagecolor="#ffffff"
   bordercolor="#666666"
   borderopacity="1"
   objecttolerance="10"
   gridtolerance="10"
   guidetolerance="10"
   inkscape:pageopacity="0"
   inkscape:pageshadow="2"
   inkscape:window-width="1920"
   inkscape:window-height="1017"
   id="namedview6"
   showgrid="false"
   inkscape:zoom="8.7830108"
   inkscape:cx="-1.4971468"
   inkscape:cy="24.73228"
   inkscape:window-x="-8"
   inkscape:window-y="-8"
   inkscape:window-maximized="1"
   inkscape:current-layer="svg2" />
	<path
   d="m 7.3811166,0.57661574 37.8802054,0 19.593239,19.62048126 0,33.147296 c 3.044005,1.077433 5.224918,3.984569 5.224918,7.40159 l 0,7.848192 c 0,4.334516 -3.508963,7.848193 -7.837295,7.848193 l -33.186477,0 c -4.328497,0 -7.837295,-3.513677 -7.837295,-7.848193 l -13.8372954,0 z M 59.629808,26.737203 l -20.89951,0 0,-20.928569 -26.124263,1.652e-4 0,57.5533578 8.612377,0 0,-2.616009 c 0,-4.334516 3.508798,-7.84817 7.837295,-7.848193 L 59.629808,52.89779 z M 43.955051,7.1168864 l 0,14.3881326 14.36832,0 z"
   id="path4"
   inkscape:connector-curvature="0"
   style="fill:#000000;fill-opacity:1;stroke-width:0.2;stroke-linejoin:round"
   sodipodi:nodetypes="ccccsssscccccccccsscccccc" />



<g
   style="font-size:20.47614288px;font-style:normal;font-weight:bold;line-height:125%;letter-spacing:0px;word-spacing:0px;fill:#ffffff;fill-opacity:1;stroke:none;font-family:Sans;-inkscape-font-specification:Sans Bold"
   id="text2987"><path
     d="m 24.466486,67.255702 2.879458,-0.279948 c 0.173297,0.966489 0.524897,1.676355 1.054801,2.129599 0.529895,0.453251 1.24476,0.679874 2.144596,0.679872 0.953146,2e-6 1.671343,-0.201626 2.154594,-0.604886 0.483233,-0.403254 0.724854,-0.874832 0.724864,-1.414734 -1e-5,-0.346596 -0.101658,-0.64154 -0.304943,-0.884833 -0.203304,-0.243282 -0.558237,-0.454909 -1.064799,-0.63488 -0.34661,-0.119972 -1.13646,-0.333265 -2.369554,-0.63988 -1.586372,-0.393252 -2.699495,-0.876494 -3.339371,-1.449727 -0.899832,-0.806506 -1.349747,-1.789653 -1.349746,-2.949444 -1e-6,-0.746515 0.211626,-1.444716 0.634881,-2.094605 0.423251,-0.649865 1.033135,-1.144771 1.829655,-1.484721 0.796512,-0.339921 1.757997,-0.509889 2.884457,-0.509904 1.839645,1.5e-5 3.224382,0.403272 4.154217,1.209772 0.929813,0.806528 1.418054,1.882991 1.464724,3.229392 l -2.959442,0.129976 C 32.878226,60.93357 32.60661,60.392006 32.190031,60.062057 31.773435,59.732131 31.148553,59.567162 30.315384,59.56715 c -0.859843,1.2e-5 -1.533049,0.176646 -2.019619,0.5299 -0.313279,0.226636 -0.469916,0.529912 -0.469912,0.909829 -4e-6,0.346612 0.146635,0.643222 0.439917,0.889832 0.373259,0.313284 1.279754,0.639889 2.719488,0.979815 1.43972,0.339945 2.504519,0.691545 3.194398,1.054802 0.689859,0.363272 1.229757,0.859845 1.619695,1.489719 0.389914,0.629887 0.584877,1.408073 0.58489,2.33456 -1.3e-5,0.839846 -0.233302,1.626363 -0.699868,2.359556 -0.46659,0.733196 -1.126465,1.278093 -1.979627,1.634692 -0.853182,0.356599 -1.916314,0.534899 -3.189399,0.534899 -1.85299,0 -3.276053,-0.428252 -4.269196,-1.284758 -0.993148,-0.856503 -1.586369,-2.1046 -1.779665,-3.744294 z"
     style=""
     id="path2992" /><path
     d="m 42.633064,72.024803 -5.239013,-14.657239 3.209395,0 3.709302,10.847957 3.589323,-10.847957 3.139409,0 -5.249011,14.657239 z"
     style=""
     id="path2994" /><path
     d="m 59.389907,66.635818 0,-2.469535 6.378799,0 0,5.838901 c -0.619898,0.599888 -1.518061,1.128121 -2.694493,1.584701 -1.176456,0.456581 -2.367897,0.684871 -3.574326,0.684871 -1.533052,0 -2.869465,-0.321606 -4.009245,-0.964818 -1.139789,-0.643211 -1.996293,-1.563037 -2.569516,-2.75948 -0.573227,-1.196437 -0.859839,-2.497857 -0.859838,-3.904265 -10e-7,-1.52637 0.319938,-2.88278 0.959819,-4.069233 0.639877,-1.186431 1.576366,-2.096259 2.809471,-2.729486 0.939817,-0.486561 2.109596,-0.729848 3.509339,-0.729863 1.819647,1.5e-5 3.241044,0.38161 4.264196,1.144785 1.023128,0.763202 1.681336,1.818002 1.974629,3.164404 l -2.939447,0.549896 c -0.206639,-0.719854 -0.594899,-1.288079 -1.16478,-1.704679 -0.569903,-0.416576 -1.281435,-0.62487 -2.134598,-0.624882 -1.293097,1.2e-5 -2.321236,0.409935 -3.084419,1.229768 -0.763194,0.819856 -1.144789,2.036292 -1.144785,3.649313 -4e-6,1.739678 0.38659,3.044431 1.159782,3.914262 0.773182,0.869839 1.786323,1.304757 3.039427,1.304755 0.619875,2e-6 1.241424,-0.121642 1.864649,-0.364932 0.623205,-0.243284 1.158104,-0.538228 1.604698,-0.884833 l 0,-1.85965 z"
     style=""
     id="path2996" /></g>
</svg>