<?xml version="1.0" encoding="UTF-8" standalone="no"?>
<svg
   xmlns:dc="http://purl.org/dc/elements/1.1/"
   xmlns:cc="http://creativecommons.org/ns#"
   xmlns:rdf="http://www.w3.org/1999/02/22-rdf-syntax-ns#"
   xmlns:svg="http://www.w3.org/2000/svg"
   xmlns="http://www.w3.org/2000/svg"
   xmlns:sodipodi="http://sodipodi.sourceforge.net/DTD/sodipodi-0.dtd"
   xmlns:inkscape="http://www.inkscape.org/namespaces/inkscape"
   version="1.1"
   width="76"
   height="76"
   viewBox="0 0 76.00 76.00"
   enable-background="new 0 0 76.00 76.00"
   xml:space="preserve"
   id="svg2"
   inkscape:version="0.48.4 r9939"
   sodipodi:docname="file.text.svg"><metadata
   id="metadata10"><rdf:RDF><cc:Work
       rdf:about=""><dc:format>image/svg+xml</dc:format><dc:type
         rdf:resource="http://purl.org/dc/dcmitype/StillImage" /><dc:title></dc:title></cc:Work></rdf:RDF></metadata><defs
   id="defs8" /><sodipodi:namedview
   pagecolor="#ffffff"
   bordercolor="#666666"
   borderopacity="1"
   objecttolerance="10"
   gridtolerance="10"
   guidetolerance="10"
   inkscape:pageopacity="0"
   inkscape:pageshadow="2"
   inkscape:window-width="1920"
   inkscape:window-height="1017"
   id="namedview6"
   showgrid="false"
   inkscape:zoom="8.7830108"
   inkscape:cx="-1.4971468"
   inkscape:cy="24.73228"
   inkscape:window-x="-8"
   inkscape:window-y="-8"
   inkscape:window-maximized="1"
   inkscape:current-layer="svg2" />
	<path
   d="m 7.3811166,0.57661574 37.8802054,0 19.593239,19.62048126 0,33.147296 c 3.044005,1.077433 5.224918,3.984569 5.224918,7.40159 l 0,7.848192 c 0,4.334516 -3.508963,7.848193 -7.837295,7.848193 l -33.186477,0 c -4.328497,0 -7.837295,-3.513677 -7.837295,-7.848193 l -13.8372954,0 z M 59.629808,26.737203 l -20.89951,0 0,-20.928569 -26.124263,1.652e-4 0,57.5533578 8.612377,0 0,-2.616009 c 0,-4.334516 3.508798,-7.84817 7.837295,-7.848193 L 59.629808,52.89779 z M 43.955051,7.1168864 l 0,14.3881326 14.36832,0 z"
   id="path4"
   inkscape:connector-curvature="0"
   style="fill:#000000;fill-opacity:1;stroke-width:0.2;stroke-linejoin:round"
   sodipodi:nodetypes="ccccsssscccccccccsscccccc" />



<g
   style="font-size:20.47614288px;font-style:normal;font-weight:bold;line-height:125%;letter-spacing:0px;word-spacing:0px;fill:#ffffff;fill-opacity:1;stroke:none;font-family:Sans;-inkscape-font-specification:Sans Bold"
   id="text2987"><path
     d="m 25.216345,72.024803 0,-14.657239 4.749105,0 c 1.799653,1.5e-5 2.972764,0.07333 3.519337,0.219959 0.839831,0.219973 1.543032,0.698215 2.109603,1.434729 0.566547,0.736541 0.849827,1.688027 0.84984,2.854463 -1.3e-5,0.89984 -0.163315,1.656363 -0.489908,2.269572 -0.326617,0.613225 -0.741538,1.094801 -1.244765,1.444728 -0.503249,0.34994 -1.014819,0.581563 -1.534711,0.694869 -0.706543,0.139979 -1.729682,0.209966 -3.069422,0.209961 l -1.929637,0 0,5.528958 z m 2.959442,-12.177706 0,4.159217 1.619695,0 c 1.16644,8e-6 1.946292,-0.07665 2.33956,-0.229957 0.39325,-0.153296 0.701525,-0.393251 0.924825,-0.719864 0.223282,-0.326596 0.334928,-0.706524 0.334937,-1.139786 -9e-6,-0.533222 -0.156646,-0.973139 -0.469911,-1.319751 -0.313283,-0.34659 -0.709875,-0.563215 -1.189776,-0.649878 -0.353275,-0.06664 -1.06314,-0.09997 -2.129599,-0.09998 z"
     style=""
     id="path2985" /><path
     d="m 38.923763,72.024803 0,-14.657239 2.879457,0 5.99887,9.788156 0,-9.788156 2.749482,0 0,14.657239 -2.96944,0 -5.908887,-9.558199 0,9.558199 z"
     style=""
     id="path2987" /><path
     d="m 60.509696,66.635818 0,-2.469535 6.378799,0 0,5.838901 c -0.619897,0.599888 -1.518061,1.128121 -2.694493,1.584701 -1.176455,0.456581 -2.367896,0.684871 -3.574326,0.684871 -1.533052,0 -2.869465,-0.321606 -4.009245,-0.964818 -1.139789,-0.643211 -1.996293,-1.563037 -2.569516,-2.75948 -0.573227,-1.196437 -0.859839,-2.497857 -0.859838,-3.904265 -1e-6,-1.52637 0.319938,-2.88278 0.959819,-4.069233 0.639877,-1.186431 1.576366,-2.096259 2.809471,-2.729486 0.939817,-0.486561 2.109596,-0.729848 3.509339,-0.729863 1.819647,1.5e-5 3.241045,0.38161 4.264197,1.144785 1.023127,0.763202 1.681335,1.818002 1.974628,3.164404 l -2.939447,0.549896 c -0.206639,-0.719854 -0.594899,-1.288079 -1.16478,-1.704679 -0.569903,-0.416576 -1.281435,-0.62487 -2.134598,-0.624882 -1.293097,1.2e-5 -2.321235,0.409935 -3.084419,1.229768 -0.763194,0.819856 -1.144789,2.036292 -1.144784,3.649313 -5e-6,1.739678 0.386589,3.044431 1.159781,3.914262 0.773182,0.869839 1.786323,1.304757 3.039428,1.304755 0.619874,2e-6 1.241423,-0.121642 1.864648,-0.364932 0.623205,-0.243284 1.158104,-0.538228 1.604698,-0.884833 l 0,-1.85965 z"
     style=""
     id="path2989" /></g>
</svg>