<?xml version="1.0" encoding="UTF-8" standalone="no"?>
<svg
   xmlns:dc="http://purl.org/dc/elements/1.1/"
   xmlns:cc="http://creativecommons.org/ns#"
   xmlns:rdf="http://www.w3.org/1999/02/22-rdf-syntax-ns#"
   xmlns:svg="http://www.w3.org/2000/svg"
   xmlns="http://www.w3.org/2000/svg"
   xmlns:sodipodi="http://sodipodi.sourceforge.net/DTD/sodipodi-0.dtd"
   xmlns:inkscape="http://www.inkscape.org/namespaces/inkscape"
   version="1.1"
   width="76"
   height="76"
   viewBox="0 0 76.00 76.00"
   enable-background="new 0 0 76.00 76.00"
   xml:space="preserve"
   id="svg2"
   inkscape:version="0.48.4 r9939"
   sodipodi:docname="appbar.sort.numeric.descending.svg"><metadata
   id="metadata10"><rdf:RDF><cc:Work
       rdf:about=""><dc:format>image/svg+xml</dc:format><dc:type
         rdf:resource="http://purl.org/dc/dcmitype/StillImage" /></cc:Work></rdf:RDF></metadata><defs
   id="defs8" /><sodipodi:namedview
   pagecolor="#ffffff"
   bordercolor="#666666"
   borderopacity="1"
   objecttolerance="10"
   gridtolerance="10"
   guidetolerance="10"
   inkscape:pageopacity="0"
   inkscape:pageshadow="2"
   inkscape:window-width="1920"
   inkscape:window-height="1017"
   id="namedview6"
   showgrid="false"
   inkscape:zoom="3.1052632"
   inkscape:cx="38"
   inkscape:cy="38"
   inkscape:window-x="1912"
   inkscape:window-y="-8"
   inkscape:window-maximized="1"
   inkscape:current-layer="svg2" />
	<path
   d="M 76.097458,28.760146 52.881926,51.975678 29.666393,28.760146 l 46.431065,0 z m -67.0184228,3.233705 0,-22.3668075 -1.7904869,0.8149085 -1.6159762,0.561729 -1.7130435,0.388444 -1.9071779,0.274031 0,-6.9355748 L 4.7502584,4.1203194 7.3614363,3.2118474 9.9726142,1.9321021 C 10.846569,1.4397576 11.745755,1.1031762 12.670522,0.45576949 l 5.169091,0 0,31.53808151 -8.7605778,0 z m 14.3438698,21.72816 c 0,2.339601 -0.271578,4.561108 -0.814909,6.664874 -0.543156,2.103765 -1.389252,3.946289 -2.53829,5.527573 -1.149037,1.581285 -2.626246,2.837728 -4.431801,3.769502 -1.805555,0.9316 -3.965914,1.397488 -6.4810759,1.397488 L 6.711927,70.953017 4.6971693,70.637461 3.1367351,70.245688 2.0271202,69.867757 l 0,-7.129709 1.0090435,0.541054 1.4321793,0.509691 1.6783515,0.377931 1.7338937,0.152608 c 2.1685938,0 3.8273208,-0.599924 4.9761838,-1.799773 1.149038,-1.199849 1.737398,-2.962477 1.765081,-5.288235 l -0.131759,0 c -0.619549,0.795285 -1.417111,1.427624 -2.392689,1.89684 -0.975578,0.469217 -2.1570298,0.704001 -3.5440045,0.704001 -1.0819314,0 -2.1258418,-0.209203 -3.131381,-0.627783 C 4.4163052,58.785977 3.5239527,58.175715 2.7449621,57.373421 1.9657962,56.571302 1.6164244,55.631993 1.1472078,54.448439 0.67799125,53.26471 0.44320776,51.912251 0.44320776,50.391065 c 0,-1.849358 0.29943657,-3.484958 0.89813444,-4.906801 0.5988731,-1.421666 1.1434307,-2.66707 2.183837,-3.628806 1.040231,-0.961737 2.2644341,-1.687638 3.6722591,-2.177705 1.408,-0.490242 2.9209517,-0.735188 4.5393807,-0.735188 0.822969,0 1.686412,0.09357 2.590328,0.280865 0.903916,0.187302 1.785932,0.50163 2.645869,0.943164 0.859939,0.441533 1.679579,1.029893 2.458569,1.765081 0.779167,0.735188 1.46582,1.651895 2.059788,2.749946 0.594142,1.098051 1.06476,2.391638 1.411504,3.88041 0.346743,1.488773 0.520028,3.208824 0.520028,5.15998 z m -9.147796,-4.050365 -0.162946,-1.3663 -0.489015,-1.227531 c -0.217263,-0.369872 -0.487789,-0.665805 -0.811406,-0.887799 -0.323615,-0.221817 -0.709782,-0.3329 -1.158148,-0.3329 -0.781444,0 -1.42885,0.313278 -1.942045,0.939834 -0.5131947,0.626382 -0.7698797,1.59863 -0.7698797,2.916396 0,1.225255 0.2531807,2.155629 0.7595421,2.791471 0.5061866,0.635668 1.1430806,0.953676 1.9106826,0.953676 0.462383,0 0.858887,-0.09724 1.189511,-0.291376 0.330449,-0.194135 0.60448,-0.464661 0.821743,-0.811405 l 0.489015,-1.213691 0.162946,-1.470375 z"
   id="path4"
   inkscape:connector-curvature="0"
   style="fill:#000000;fill-opacity:1;stroke-linejoin:round" />
</svg>