<?xml version="1.0" encoding="UTF-8" standalone="no"?>
<svg
   xmlns:dc="http://purl.org/dc/elements/1.1/"
   xmlns:cc="http://creativecommons.org/ns#"
   xmlns:rdf="http://www.w3.org/1999/02/22-rdf-syntax-ns#"
   xmlns:svg="http://www.w3.org/2000/svg"
   xmlns="http://www.w3.org/2000/svg"
   xmlns:sodipodi="http://sodipodi.sourceforge.net/DTD/sodipodi-0.dtd"
   xmlns:inkscape="http://www.inkscape.org/namespaces/inkscape"
   version="1.1"
   width="76"
   height="76"
   viewBox="0 0 76.00 76.00"
   enable-background="new 0 0 76.00 76.00"
   xml:space="preserve"
   id="svg2"
   inkscape:version="0.48.4 r9939"
   sodipodi:docname="appbar.sidebar.left.collapse.svg"><metadata
   id="metadata10"><rdf:RDF><cc:Work
       rdf:about=""><dc:format>image/svg+xml</dc:format><dc:type
         rdf:resource="http://purl.org/dc/dcmitype/StillImage" /></cc:Work></rdf:RDF></metadata><defs
   id="defs8" /><sodipodi:namedview
   pagecolor="#ffffff"
   bordercolor="#666666"
   borderopacity="1"
   objecttolerance="10"
   gridtolerance="10"
   guidetolerance="10"
   inkscape:pageopacity="0"
   inkscape:pageshadow="2"
   inkscape:window-width="640"
   inkscape:window-height="480"
   id="namedview6"
   showgrid="false"
   inkscape:zoom="3.1052632"
   inkscape:cx="38"
   inkscape:cy="38"
   inkscape:window-x="477"
   inkscape:window-y="37"
   inkscape:window-maximized="0"
   inkscape:current-layer="svg2" />
	<path
   d="m 52.983051,24.779658 -13.220339,13.220339 13.220339,13.220339 0,-26.440678 z m -34.372881,19.830508 0,15.864407 17.18644,0 0,-15.864407 -17.18644,0 z m -3.966102,0 -14.07379139,0 C 1.3837769,50.297424 3.2314912,55.651132 5.9167932,60.474573 l 8.7272748,0 0,-15.864407 z m 21.152542,-13.220339 -35.22633339,0 c -0.30880067,2.158882 -0.46858169,4.365885 -0.46858169,6.61017 l 35.69491508,0 0,-6.61017 z m 0,-11.898305 -31.8447426,0 c -0.9284379,2.124905 -1.7018806,4.333099 -2.3060501,6.61017 l 34.1507927,0 0,-6.61017 z m 0,-13.2203388 -23.103335,0 C 10.772756,8.3090984 9.0351142,10.521126 7.5066183,12.881353 l 28.4001177,0 -0.110126,-6.6101698 z m 10.576271,70.0677968 0,-27.762712 -3.966101,-3.966102 0,31.728814 3.966101,0 z m 0,-48.915254 0,-27.76269905 -3.966101,1.322e-5 0,31.72878683 3.966101,-3.966101 z"
   id="path4"
   inkscape:connector-curvature="0"
   style="fill:#000000;fill-opacity:1;stroke-width:0.2;stroke-linejoin:round" />
</svg>