<?xml version="1.0" encoding="UTF-8" standalone="no"?>
<svg
   xmlns:dc="http://purl.org/dc/elements/1.1/"
   xmlns:cc="http://creativecommons.org/ns#"
   xmlns:rdf="http://www.w3.org/1999/02/22-rdf-syntax-ns#"
   xmlns:svg="http://www.w3.org/2000/svg"
   xmlns="http://www.w3.org/2000/svg"
   xmlns:sodipodi="http://sodipodi.sourceforge.net/DTD/sodipodi-0.dtd"
   xmlns:inkscape="http://www.inkscape.org/namespaces/inkscape"
   version="1.1"
   width="76"
   height="76"
   viewBox="0 0 76.00 76.00"
   enable-background="new 0 0 76.00 76.00"
   xml:space="preserve"
   id="svg2"
   inkscape:version="0.91 r"
   sodipodi:docname="appbar.source.fork.svg"><metadata
     id="metadata10"><rdf:RDF><cc:Work
         rdf:about=""><dc:format>image/svg+xml</dc:format><dc:type
           rdf:resource="http://purl.org/dc/dcmitype/StillImage" /></cc:Work></rdf:RDF></metadata><defs
     id="defs8" /><sodipodi:namedview
     pagecolor="#ffffff"
     bordercolor="#666666"
     borderopacity="1"
     objecttolerance="10"
     gridtolerance="10"
     guidetolerance="10"
     inkscape:pageopacity="0"
     inkscape:pageshadow="2"
     inkscape:window-width="1855"
     inkscape:window-height="1056"
     id="namedview6"
     showgrid="false"
     inkscape:zoom="3.1052632"
     inkscape:cx="38"
     inkscape:cy="38"
     inkscape:window-x="1985"
     inkscape:window-y="24"
     inkscape:window-maximized="1"
     inkscape:current-layer="svg2" /><path
     d="m 63.420544,41.10639 c 0,5.903803 -4.786102,10.689904 -10.689905,10.689904 l -21.378458,0 c 3.244915,2.437779 5.343772,6.318679 5.343772,10.689734 0,7.37984 -5.982459,13.362297 -13.362296,13.362297 -7.37967,0 -13.3621275,-5.982457 -13.3621275,-13.362297 0,-5.479304 3.2980825,-10.188439 8.0173435,-12.250331 l 0,-23.603228 C 13.269612,24.570577 9.9715295,19.861442 9.9715295,14.382136 c 0,-7.379838 5.9824575,-13.3622953 13.3621275,-13.3622953 7.379837,0 13.362296,5.9824573 13.362296,13.3622953 0,5.479306 -3.298082,10.188441 -8.017345,12.250333 l 0,14.473921 18.707248,0 c 2.951732,0 5.344783,-2.392882 5.344783,-5.344783 l 0,-3.784355 c -4.719261,-2.061892 -8.017343,-6.771027 -8.017343,-12.250333 0,-7.379838 5.982457,-13.3622951 13.362295,-13.3622951 7.379669,0 13.362296,5.9824571 13.362296,13.3622951 0,5.479306 -3.298082,10.188441 -8.017343,12.250333 l 0,9.129138 z M 58.075591,14.381968 c -2.951901,0 -5.344952,2.393051 -5.344952,5.344951 0,2.951902 2.393051,5.344784 5.344952,5.344784 2.951902,0 5.344953,-2.392882 5.344953,-5.344784 0,-2.9519 -2.393051,-5.344951 -5.344953,-5.344951 z M 23.333657,9.0371842 c -2.951902,0 -5.344784,2.3930508 -5.344784,5.3449518 0,2.951902 2.392882,5.344783 5.344784,5.344783 2.951902,0 5.344951,-2.392881 5.344951,-5.344783 0,-2.951901 -2.393049,-5.3449518 -5.344951,-5.3449518 z m 0,48.1040618 c -2.951902,0 -5.344784,2.392882 -5.344784,5.344782 0,2.951902 2.392882,5.344953 5.344784,5.344953 2.951902,0 5.344951,-2.393051 5.344951,-5.344953 0,-2.9519 -2.393049,-5.344782 -5.344951,-5.344782 z"
     id="path4"
     inkscape:connector-curvature="0"
     style="fill:#000000;fill-opacity:1;stroke-width:0.2;stroke-linejoin:round" /></svg>